<?xml version="1.0" standalone="no"?>
<!DOCTYPE svg PUBLIC "-//W3C//DTD SVG 20010904//EN"
 "http://www.w3.org/TR/2001/REC-SVG-20010904/DTD/svg10.dtd">
<svg version="1.0" xmlns="http://www.w3.org/2000/svg"
 width="300.000000pt" height="120.000000pt" viewBox="0 0 300.000000 120.000000"
 preserveAspectRatio="xMidYMid meet">
<metadata>
Created by potrace 1.10, written by Peter Selinger 2001-2011
</metadata>
<g transform="translate(0.000000,120.000000) scale(0.100000,-0.100000)"
fill="#000000" stroke="none">
<path d="M230 908 c0 -161 3 -431 7 -601 6 -289 7 -307 25 -307 17 0 18 24 18
600 l0 600 -25 0 -25 0 0 -292z"/>
<path d="M2720 600 c0 -576 1 -600 18 -600 18 0 19 18 25 307 4 170 7 440 7
601 l0 292 -25 0 -25 0 0 -600z"/>
<path d="M967 987 c-274 -67 -494 -123 -488 -125 9 -3 47 4 246 47 528 115
750 161 772 161 18 0 287 -56 768 -161 222 -48 279 -59 282 -55 3 2 -139 39
-314 81 -175 43 -407 99 -515 126 -109 27 -210 49 -225 48 -15 0 -252 -55
-526 -122z"/>
<path d="M770 653 l0 -88 242 3 c133 2 243 4 244 5 1 1 4 39 6 85 l5 82 -249
0 -248 0 0 -87z m100 52 c15 -19 6 -61 -16 -69 -42 -16 -75 24 -54 64 13 24
52 27 70 5z m361 -11 c7 -9 13 -27 12 -40 -3 -71 20 -64 -215 -63 -192 1 -210
2 -181 15 32 14 63 58 63 89 0 23 301 23 321 -1z"/>
<path d="M1280 616 l0 -86 -44 0 c-26 0 -46 -5 -49 -12 -2 -7 -8 -10 -12 -5
-5 4 0 14 11 22 17 13 -6 14 -198 15 l-216 0 14 -30 c17 -33 24 -36 42 -18 8
8 15 8 25 0 15 -13 37 2 37 25 0 10 26 13 113 12 61 -1 104 -3 95 -6 -25 -6
-22 -16 9 -30 17 -8 30 -9 38 -3 7 6 16 5 23 -2 9 -9 15 -9 24 0 16 16 249 17
265 1 8 -8 17 -7 34 3 33 18 36 24 31 58 -4 25 -9 29 -40 32 -27 2 -38 8 -41
23 -6 32 -62 69 -124 80 l-37 7 0 -86z m80 34 c10 -5 21 -21 24 -35 4 -16 19
-30 44 -41 32 -13 35 -17 20 -25 -10 -6 -46 -9 -80 -7 l-63 3 -3 44 c-5 69 11
86 58 61z"/>
<path d="M427 683 c-4 -3 -4 -23 -1 -44 9 -51 -1 -76 -22 -59 -10 9 -18 10
-25 3 -17 -17 29 -45 53 -32 15 8 18 22 18 74 0 60 -6 75 -23 58z"/>
<path d="M497 683 c-4 -3 -7 -35 -7 -70 l0 -63 35 0 c25 0 35 4 35 16 0 11 -6
14 -20 9 -18 -6 -20 -2 -20 54 0 56 -6 71 -23 54z"/>
<path d="M616 658 c-20 -49 -29 -108 -16 -108 6 0 13 7 16 15 4 8 12 15 20 15
8 0 14 -7 14 -15 0 -8 7 -15 16 -15 13 0 15 6 10 28 -29 118 -39 131 -60 80z"/>
<path d="M2092 674 c-30 -21 -27 -42 8 -62 16 -9 30 -23 30 -29 0 -16 -12 -17
-27 -2 -6 6 -16 8 -23 4 -16 -10 7 -35 34 -35 51 0 62 51 16 75 -16 9 -30 20
-30 25 0 13 17 13 25 0 7 -11 25 -4 25 10 0 21 -37 29 -58 14z"/>
<path d="M1610 670 c0 -5 7 -10 15 -10 12 0 15 -13 15 -55 0 -44 3 -55 16 -55
13 0 15 8 10 51 -6 45 -4 51 14 56 36 9 21 23 -25 23 -25 0 -45 -4 -45 -10z"/>
<path d="M1722 616 c1 -48 5 -66 15 -66 7 0 13 7 13 15 0 8 5 15 10 15 6 0 10
-7 10 -15 0 -8 6 -15 13 -15 9 0 13 18 12 63 l0 62 -37 3 -37 3 1 -65z m53 19
c0 -10 -6 -20 -12 -22 -8 -3 -13 5 -13 22 0 17 5 25 13 23 6 -3 12 -13 12 -23z"/>
<path d="M1852 633 c-6 -27 -14 -56 -17 -65 -5 -11 -2 -18 5 -18 7 0 19 8 26
18 13 16 15 16 28 0 27 -36 33 -18 18 47 -20 82 -43 89 -60 18z"/>
<path d="M1960 615 c0 -67 16 -90 23 -32 l3 32 13 -32 c22 -57 41 -42 41 32 0
53 -3 65 -16 65 -12 0 -15 -7 -12 -24 3 -15 0 -27 -7 -30 -7 -2 -12 1 -12 7 1
33 -4 47 -18 47 -12 0 -15 -14 -15 -65z"/>
<path d="M2190 616 c0 -52 3 -66 15 -66 8 0 15 6 15 13 0 7 10 17 23 22 17 8
22 18 22 50 0 39 -1 40 -37 43 l-38 3 0 -65z"/>
<path d="M2304 666 c-3 -7 -4 -35 -2 -62 3 -45 5 -49 31 -52 16 -2 35 2 43 9
14 12 19 74 8 103 -8 20 -72 22 -80 2z m51 -51 c0 -42 -19 -58 -30 -25 -9 29
3 72 18 67 7 -2 12 -21 12 -42z"/>
<path d="M2428 615 c-2 -47 0 -65 10 -65 6 0 12 7 12 15 0 8 4 15 9 15 5 0 11
-7 15 -15 3 -8 13 -15 22 -15 13 0 14 3 5 14 -8 9 -8 22 0 44 15 42 -2 72 -40
72 -29 0 -29 -1 -33 -65z m50 17 c2 -15 -2 -22 -12 -22 -11 0 -16 9 -16 26 0
31 23 28 28 -4z"/>
<path d="M2530 670 c0 -5 7 -10 15 -10 12 0 15 -13 15 -55 0 -42 3 -55 15 -55
12 0 15 13 15 55 0 42 3 55 15 55 8 0 15 5 15 10 0 6 -20 10 -45 10 -25 0 -45
-4 -45 -10z"/>
<path d="M2355 410 c-201 -59 -461 -135 -670 -195 l-190 -55 -515 140 c-283
77 -519 140 -524 140 -30 0 -47 5 770 -239 l271 -81 199 64 c109 35 314 100
454 144 281 89 353 112 359 118 11 10 -34 0 -154 -36z"/>
</g>
</svg>
